<svg xmlns="http://www.w3.org/2000/svg" xmlns:xlink="http://www.w3.org/1999/xlink" version="1.1" x="0px" y="0px" viewBox="0 0 64 64" enable-background="new 0 0 64 64" xml:space="preserve"><g><g><path d="M56.734,44.234c-0.04-1.047-0.03-2.098-0.02-3.116c0.005-0.457,0.009-0.915,0.009-1.371l0.001-1.185v-0.334    c-0.002-1.271-0.005-2.584,0.007-3.884c-1.617-0.393-3.249-0.802-4.829-1.198c-1.29-0.323-2.624-0.656-3.936-0.98    c-0.094-0.023-0.218-0.024-0.302-0.004c-1.288,0.316-2.598,0.644-3.866,0.962c-1.609,0.403-3.27,0.817-4.914,1.217l0.005,1.089    c0.015,2.926,0.032,5.953-0.011,8.935c-0.03,2.085,0.618,3.9,1.98,5.553c1.665,2.019,3.875,3.599,6.947,4.965    c2.615-1.141,4.688-2.535,6.335-4.26C55.977,48.699,56.825,46.609,56.734,44.234z M53.636,39.994    c-0.791,1.015-1.585,2.028-2.373,3.044c-1.284,1.655-2.562,3.315-3.849,4.968c-0.724,0.93-1.307,0.92-1.995-0.022    c-1.139-1.558-2.277-3.116-3.414-4.675c-0.384-0.527-0.38-1.071,0.005-1.428c0.384-0.356,0.935-0.321,1.424,0.102    c0.835,0.724,1.665,1.454,2.499,2.179c0.134,0.117,0.278,0.222,0.553,0.439c0.108-0.174,0.179-0.355,0.305-0.482    c1.756-1.768,3.516-3.532,5.287-5.285c0.191-0.189,0.439-0.369,0.691-0.437c0.418-0.112,0.788,0.052,1.004,0.446    C53.996,39.251,53.913,39.638,53.636,39.994z"/><path d="M62.697,44.168L62.697,44.168c-0.025-0.641-0.031-1.297-0.031-1.952h0.024l-0.001-4.895    c-0.003-1.602-0.006-3.258,0.011-4.875c0.022-1.975-1.103-3.43-3.01-3.893c-1.858-0.45-3.751-0.924-5.583-1.382l-0.815-0.204    c-1.385-0.347-2.817-0.706-4.227-1.052c-0.81-0.2-1.696-0.201-2.492-0.005c-1.55,0.38-3.093,0.766-4.528,1.126    c-1.778,0.445-3.99,0.999-6.097,1.507c-1.907,0.46-3.04,1.93-3.031,3.932l0.009,1.742c0.018,3.352,0.036,6.818-0.013,10.211    c-0.049,3.487,1.072,6.646,3.331,9.39c2.438,2.958,5.6,5.222,9.953,7.128c0.481,0.21,1.031,0.321,1.589,0.321    c0.574,0,1.148-0.116,1.662-0.337c3.674-1.582,6.614-3.56,8.989-6.047C61.416,51.762,62.849,48.156,62.697,44.168z M55.92,52.659    L55.92,52.659c-2.113,2.215-4.77,4.014-8.114,5.491c-3.934-1.769-6.773-3.81-8.912-6.404c-1.744-2.116-2.573-4.441-2.535-7.108    c0.056-3.966,0.035-7.991,0.014-11.882l-0.006-1.108c2.073-0.504,4.161-1.027,6.188-1.534c1.69-0.423,3.438-0.861,5.159-1.283    c0.04-0.01,0.139-0.013,0.21,0.005c1.705,0.42,3.44,0.854,5.117,1.274c2.029,0.508,4.12,1.032,6.203,1.541    c-0.012,1.609-0.009,3.229-0.006,4.803c0,0.03,0,0.06,0,0.089l-0.001,1.964c0,0.606-0.006,1.212-0.012,1.818    c-0.013,1.352-0.027,2.75,0.026,4.147C59.368,47.51,58.279,50.188,55.92,52.659z"/></g><g><g><path d="M35.26,57.421H5.371V6.579h33.819v4.483c0,1.127,0.913,2.04,2.04,2.04h4.633v9.75c1.266-0.305,2.67-0.301,3.952,0.014     c0.042,0.01,0.085,0.021,0.127,0.031V11.062c0-0.549-0.221-1.075-0.614-1.459l-6.673-6.522C42.275,2.709,41.763,2.5,41.231,2.5     H3.332c-1.127,0-2.04,0.913-2.04,2.04V59.46c0,1.126,0.913,2.04,2.04,2.04h37.101C38.458,60.292,36.755,58.947,35.26,57.421z"/></g><g><circle cx="13.262" cy="17.811" r="3.177"/><g><path d="M39.883,19.077H19.752c-0.699,0-1.266-0.567-1.266-1.266c0-0.699,0.567-1.266,1.266-1.266h20.131      c0.699,0,1.266,0.567,1.266,1.266C41.149,18.51,40.582,19.077,39.883,19.077z"/></g><circle cx="13.262" cy="27.27" r="3.177"/><circle cx="13.262" cy="36.73" r="3.177"/><circle cx="13.262" cy="46.189" r="3.177"/><path d="M33.745,26.004H19.752c-0.699,0-1.266,0.567-1.266,1.266s0.567,1.266,1.266,1.266h11.114     C31.55,27.45,32.533,26.576,33.745,26.004z"/><g><path d="M29.79,35.464H19.752c-0.699,0-1.266,0.567-1.266,1.266c0,0.699,0.567,1.266,1.266,1.266H29.8      C29.797,37.148,29.794,36.303,29.79,35.464z"/></g><g><path d="M29.772,44.923h-10.02c-0.699,0-1.266,0.567-1.266,1.266c0,0.699,0.567,1.266,1.266,1.266h10.234      C29.855,46.629,29.784,45.785,29.772,44.923z"/></g></g></g></g></svg>