<?xml version="1.0" encoding="utf-8"?>
<!-- Generator: Adobe Illustrator 22.0.1, SVG Export Plug-In . SVG Version: 6.00 Build 0)  -->
<svg version="1.1" id="Layer_1" xmlns="http://www.w3.org/2000/svg" xmlns:xlink="http://www.w3.org/1999/xlink" x="0px" y="0px"
	 viewBox="0 0 1024 1024" style="enable-background:new 0 0 1024 1024;" xml:space="preserve">
<path d="M704.2,563.7c106.1,0,192.2-86,192.2-192.1c0-106.1-86-192.2-192.1-192.2c0,0-0.1,0-0.1,0c-106.1,0-192.1,86.1-192.1,192.2
	C512.1,477.7,598.1,563.7,704.2,563.7z M704.2,627.8c-141.5,0-256.2-114.7-256.2-256.2c0-141.5,114.7-256.2,256.2-256.2
	c0,0,0,0,0.1,0c141.5,0,256.2,114.7,256.2,256.2C960.3,513.1,845.6,627.8,704.2,627.8z M854.8,583.2l96.1,166.5
	c8.9,15.3,3.8,34.9-11.4,43.8c-15.3,8.9-34.9,3.8-43.8-11.4c-0.1-0.1-0.1-0.2-0.2-0.4l-96.1-166.5c-8.7-15.4-3.4-34.9,12-43.7
	C826.6,562.9,846,568.1,854.8,583.2z M95.7,115.3h256.2c17.7,0,32,14.4,32,32c0,17.7-14.3,32-32,32H95.7c-17.7,0-32-14.3-32-32
	C63.6,129.7,77.9,115.4,95.7,115.3C95.6,115.3,95.6,115.3,95.7,115.3L95.7,115.3z M95.7,371.6h192.2c17.7,0,32,14.4,32,32
	c0,17.7-14.3,32-32,32H95.7c-17.7,0-32-14.4-32-32C63.7,385.9,78,371.6,95.7,371.6z M95.7,627.8h320.3c17.7,0,32,14.3,32,32
	c0,17.7-14.3,32-32,32H95.7c-17.7,0-32-14.3-32-32C63.6,642.1,78,627.8,95.7,627.8L95.7,627.8z M95.7,884h832.7
	c17.7,0,32,14.3,32,32s-14.3,32-32,32l0,0H95.7c-17.7,0-32-14.3-32-32S78,884,95.7,884L95.7,884z"/>
</svg>
