<svg xmlns="http://www.w3.org/2000/svg" xmlns:xlink="http://www.w3.org/1999/xlink" version="1.1" x="0px" y="0px" viewBox="0 0 50 50" enable-background="new 0 0 50 50" xml:space="preserve"><g><path fill-rule="evenodd" clip-rule="evenodd" d="M24.168,33.394v-1.949h-3.748v1.949H24.168z M16.666,31.672v-2.84h-3.564v-3.564   h-2.84v3.564H6.697v2.84h3.564v3.564h2.84v-3.564H16.666z M33.323,30.252c0,0.898,0.728,1.624,1.625,1.624   c0.898,0,1.624-0.726,1.624-1.624c0-0.898-0.727-1.625-1.624-1.625C34.05,28.627,33.323,29.354,33.323,30.252z M36.693,26.879   c0,0.897,0.728,1.625,1.626,1.625c0.898,0,1.625-0.727,1.625-1.625c0-0.897-0.727-1.625-1.625-1.625   C37.421,25.254,36.693,25.983,36.693,26.879z M38.318,32c-0.897,0-1.625,0.727-1.625,1.625s0.728,1.624,1.625,1.624   c0.898,0,1.624-0.726,1.624-1.624S39.216,32,38.318,32z M40.062,30.252c0,0.898,0.727,1.625,1.625,1.625   c0.898,0,1.625-0.727,1.625-1.625c0-0.898-0.727-1.625-1.625-1.625C40.789,28.627,40.062,29.354,40.062,30.252z M37.908,18.216   h-10.82V15.31h-0.666c0.094-1.632,0.857-2.036,1.852-2.065c0.64-0.018,1.416,0.062,2.205,0.144c3.716,0.386,7.681,0.8,8.387-5.371   l-2.819-0.322c-0.387,3.384-2.914,3.12-5.28,2.875c-0.872-0.09-1.729-0.18-2.572-0.155c-2.582,0.074-4.532,1.013-4.614,4.894h-0.67   v2.906h-10.82C5.459,18.216,0,23.667,0,30.307c0,8.017,7.575,13.556,15.119,11.597c2.329-0.605,4.526-1.942,6.245-4.115h7.271   c1.718,2.172,3.917,3.51,6.245,4.115C42.525,43.889,50,38.231,50,30.307C50,23.667,44.541,18.216,37.908,18.216z M37.908,21.056   c5.072,0,9.252,4.172,9.252,9.251c0,6.08-5.724,10.374-11.568,8.856c-2.588-0.671-4.042-2.106-5.52-4.214H19.927   c-1.476,2.108-2.934,3.543-5.519,4.214c-5.764,1.497-11.567-2.704-11.567-8.856c0-5.079,4.18-9.251,9.252-9.251H37.908z    M25.831,33.394h3.747v-1.949h-3.747V33.394z"/></g></svg>